<svg id="Layer_1" data-name="Layer 1" xmlns="http://www.w3.org/2000/svg" viewBox="0 0 447.33 147.86"><defs><style>.cls-1,.cls-2{fill:#ffdf16;}.cls-1{fill-rule:evenodd;}</style></defs><title>attitude-is-everything-logo</title><path class="cls-1" d="M398.65,12.26H409c.1,19.42-.07,39.92,0,59.83-3.2-.1-6.82.21-9.76-.15V66.66c-.08-.44-.23.25-.31.31a.79.79,0,0,0-.47.46c-.76.77-1.36,1.59-2,2.17-.13.11-.32.05-.46.15s-.18.37-.31.47-.35.08-.46.15-.21.25-.31.31a14.65,14.65,0,0,1-20.3-4.34c-2.78-3.81-3.87-8.79-3.87-13.95,0-5.4,1.06-10.45,3.72-14.1a15.06,15.06,0,0,1,11.63-6.35A15.26,15.26,0,0,1,392.91,33a13.1,13.1,0,0,1,2,1.08,5,5,0,0,0,.62.46,13.63,13.63,0,0,1,2.64,2.48c.15.09.57.36.46-.15ZM388.57,40a7.46,7.46,0,0,0-2.79.93c-.23.14-.49.54-.78.78a9.85,9.85,0,0,0-.93.78,11.61,11.61,0,0,0-1.4,1.86,16.9,16.9,0,0,0-1.39,6.51c-.13,3.09.22,6.75,1.24,9a9.26,9.26,0,0,0,5,4.65,8.27,8.27,0,0,0,6.67-.93,7.94,7.94,0,0,0,2.17-2.17,10.54,10.54,0,0,0,.93-1.24,18.54,18.54,0,0,0,1.4-8.37c-.1-3.09-.68-6.31-1.7-8.06l-.16-.16c-.27-.28-.41-.52-.62-.78a6.07,6.07,0,0,0-2-1.7c-.05,0-.09-.27-.16-.31a6.23,6.23,0,0,0-1.7-.62,10.49,10.49,0,0,0-3.41-.16c-.1,0-.21,0-.31,0" transform="translate(-4.67 -3.74)"/><path class="cls-1" d="M289.53,16c.36,2.84.05,6.35.16,9.45H279.3v-9a.42.42,0,0,1,.31-.47Z" transform="translate(-4.67 -3.74)"/><path class="cls-1" d="M233.89,18.46V32.72c2.07.36,4.8.05,7.13.15v8.21h-7c-.28,3.43-.16,7.27-.16,11a75.46,75.46,0,0,0,.31,10.85c.91,2.48,4.79,1.28,6.82.62.13,2.76.62,5.17.77,7.9-3.74,1.61-9.27,2.23-13.17.62a8,8,0,0,1-3.25-2.32c-2.16-2.64-1.86-8.77-1.86-13.79V41.09h-4.81V32.87h4.65c.46-4.44-.16-10,.31-14.41Z" transform="translate(-4.67 -3.74)"/><path class="cls-1" d="M261.95,18.46V32.72c2.07.36,4.81.05,7.13.15v8.21h-7c-.28,3.43-.16,7.27-.16,11a75.46,75.46,0,0,0,.31,10.85c.91,2.48,4.79,1.28,6.82.62.13,2.76.62,5.17.78,7.9-3.74,1.61-9.27,2.23-13.18.62a8,8,0,0,1-3.25-2.32c-2.15-2.64-1.86-8.77-1.86-13.79V41.09h-4.81V32.87h4.81c.46-4.44-.16-10,.31-14.41Z" transform="translate(-4.67 -3.74)"/><path class="cls-1" d="M312.78,18.46c.12,5-.2,9.52-.16,14.41h7.13v8.21h-7.13V52.25a73.51,73.51,0,0,0,.31,10.7c.91,2.48,4.79,1.28,6.82.62.13,2.76.62,5.17.78,7.9-3.74,1.61-9.27,2.23-13.18.62a8,8,0,0,1-3.25-2.32C302,67.12,302.24,61,302.24,56V41.09h-4.81V32.87h4.65c.46-4.44-.15-10,.31-14.41Z" transform="translate(-4.67 -3.74)"/><path class="cls-1" d="M176.7,62.17V60.62h.16c.25-6,4-8.72,8.83-10.23s10.76-2,15.34-3.87c.05-1.86,0-3.89-.78-4.65-.1-.11-.05-.18-.16-.31-1.1-1.41-4.75-2-7.44-1.7a8.84,8.84,0,0,0-2.48.78c-.13.13-.33.18-.46.31s-.19.06-.31.15c-1.29,1-1.6,2.69-2.32,3.72-3.06-.61-6.18-1.15-9.3-1.7,1.74-6.46,5.92-10.18,13.18-11a39.19,39.19,0,0,1,8.52.15c1,.11,2,.12,2.79.31a23.14,23.14,0,0,1,4,1.55c.05,0,.09.27.15.31s.23,0,.31,0,.1.27.16.31.23,0,.31,0,.1.27.16.31a4.82,4.82,0,0,1,1.7,1.7s.27.1.31.16c1.69,2.35,1.86,6.57,1.86,10.54,0,5.84-.44,12.35.16,17.67a20.34,20.34,0,0,0,1.4,5.42c.18.46.58,1,.46,1.55H203.21c-.41-1.35-.85-2.66-1.24-4-.18-.19-.39.1-.46.16a13.34,13.34,0,0,0-1.08.93A16.52,16.52,0,0,1,191,73a17.09,17.09,0,0,1-9.3-2c-2.57-2.14-4.62-4.61-5-8.83m16.58-6.82c-1,.25-1.82.34-2.63.62a6.08,6.08,0,0,0-2.17,1.4A3.94,3.94,0,0,0,187.09,60a5.69,5.69,0,0,0,4.65,5.73,10.25,10.25,0,0,0,5.11-.93,8.62,8.62,0,0,0,1.4-.93,7.26,7.26,0,0,0,2.32-3.25,25.51,25.51,0,0,0,.46-7c0-.17-.07-.39-.16-.16-2.29.48-4.83,1.17-7.59,1.86" transform="translate(-4.67 -3.74)"/><path class="cls-1" d="M452,55.35H426.08c-.25,5.59,3.89,10.29,9.3,9.77a7,7,0,0,0,1.86-.47c.7-.28,1-.71,1.86-1.08a13.56,13.56,0,0,0,2.17-4h10.38c.13,2.4-1.2,4.29-2.17,5.89-.16.26-.17.58-.31.78s-.56.5-.77.78a13.19,13.19,0,0,1-1.86,2,13.81,13.81,0,0,1-2,1.55c-4.36,2.62-12.06,3.33-17.82,1.24-.58-.21-1.2-.37-1.7-.62a28.5,28.5,0,0,1-4-2.79,25,25,0,0,1-3.1-4.34c-.13-.26-.17-.65-.31-.93s-.38-.41-.46-.62c-.27-.67-.39-1.53-.62-2.32a30.56,30.56,0,0,1-.62-12.71,27.7,27.7,0,0,1,.93-3.57,17.5,17.5,0,0,1,5.73-8.21c3.11-2.53,6.81-4,12.24-3.72,12,.67,17.76,9.91,17.2,23.4M440.65,43.88a5.19,5.19,0,0,0-1.08-1.4,7,7,0,0,0-4.65-2.63,7.85,7.85,0,0,0-5.58,1.55c-.07.06-.07.25-.15.31s-.34,0-.47.15-.17.45-.31.62-.36.32-.47.47a10,10,0,0,0-1.7,6h15.5a13.16,13.16,0,0,0-1.08-5.11" transform="translate(-4.67 -3.74)"/><path class="cls-1" d="M279.46,32.87h10.23V72.09H279.31V33.34c0-.22,0-.44.16-.47" transform="translate(-4.67 -3.74)"/><path class="cls-1" d="M330,32.87h10.07c.06,6.79-.15,14.9.15,22,.13,3-.06,5.72,1.09,7.59.06.11.25.22.31.31a2.72,2.72,0,0,0,.78.93,4.51,4.51,0,0,0,1.08.77c2.82,1.39,6.92.22,8.83-1.55a5.08,5.08,0,0,0,.78-.93,6.89,6.89,0,0,0,1.39-3.1c1.4-7.38-.09-17.83.46-26h10.38V72.09h-9.61V66.51c-.08-.44-.23.25-.31.31-.36,0-.17.45-.47.46a8,8,0,0,1-1.39,1.4,15,15,0,0,1-1.4,1.4c-.15.11-.19,0-.31.15a11.67,11.67,0,0,1-1.55.78,17.19,17.19,0,0,1-1.86.93c-4,1.59-9.45,1.5-13.33-.93a12.59,12.59,0,0,1-2.48-2.33,9.39,9.39,0,0,1-1.86-3.25c-1.55-4.54-.93-11.82-.93-18.44V33.34c0-.22,0-.44.16-.47" transform="translate(-4.67 -3.74)"/><rect class="cls-2" x="177" y="75.48" width="2.48" height="2.79"/><path class="cls-1" d="M307.51,79.22v7c.46.4.77-.67,1.24-.78,2.78-1.66,6.76-1.07,7.9,1.55a7.92,7.92,0,0,1,.47,2.32c.25,3.07-.19,7.1,0,10.39h-2.48c-.23-3.25.3-7.08,0-9.92a5.52,5.52,0,0,0-.31-1.4c-1.13-2.69-5.32-1.94-6.35.31a7.68,7.68,0,0,0-.46,2.32c-.23,2.74.17,6.05,0,8.68H305V79.22Z" transform="translate(-4.67 -3.74)"/><rect class="cls-2" x="317.42" y="75.48" width="2.48" height="2.79"/><path class="cls-1" d="M295.89,79.68h2.48v5c.52.36,1.7.05,2.48.16v2h-2.48v5.58c0,1.85-.28,3.7.46,5a5.84,5.84,0,0,0,2,.15c.27.66.23,1.63.46,2.33-1.68.26-3.67.24-4.65-.62-1.45-2.23-.5-8.43-.78-12.24-.32-.36-1.29-.06-1.86-.16v-2h1.86Z" transform="translate(-4.67 -3.74)"/><path class="cls-1" d="M200.42,88.83c-.85.08-1.63.23-2.48.31a2.69,2.69,0,0,0-1.39-2.32c-1.77-.84-4.91-.19-5,1.55-.06,1.92,2.67,2,4.34,2.48S199.73,92,200.42,93c.11.15,0,.19.16.31A4.91,4.91,0,0,1,201,95.8c-.3,3.25-4.57,5-8.52,3.87a8.35,8.35,0,0,1-1.4-.46c-.07,0-.1-.29-.16-.31-1.14-.51-1.91-1.95-2.17-3.72.85-.08,1.63-.23,2.48-.31,0,1.48.92,2.07,1.7,2.79,1.87.72,6,.36,5.42-2.48-.27-1.37-2.53-1.54-4.18-2-2.6-.75-5.07-1.46-5.12-4.34a4.67,4.67,0,0,1,1.7-3.41,8,8,0,0,1,6.36-.62,5.69,5.69,0,0,1,1.55.77,4.3,4.3,0,0,1,1.7,3.26" transform="translate(-4.67 -3.74)"/><path class="cls-1" d="M228.16,92.86h-11a4.28,4.28,0,0,0,.46,2.32,3.51,3.51,0,0,0,1.55,2,3.43,3.43,0,0,0,1.7.77c2.49.32,3.6-1.15,4.49-2.63H228a5.72,5.72,0,0,1-2,3.1,4.49,4.49,0,0,1-2.32,1.24,8.75,8.75,0,0,1-3.1.31,8.51,8.51,0,0,1-4-1.71,9.16,9.16,0,0,1-2-7.44,8.19,8.19,0,0,1,2.63-5.12c.12-.09.21-.06.31-.16a7.9,7.9,0,0,1,2.94-1.08c4.56-.52,8.1,2.94,7.75,8.37m-3.87-5.27c-.76-.39-1.23-.95-2-1.08a4.43,4.43,0,0,0-5.11,4.34c2.74-.11,5.89.2,8.37-.16a7.48,7.48,0,0,0-1.24-3.1" transform="translate(-4.67 -3.74)"/><path class="cls-1" d="M261.64,92.86h-11a4.28,4.28,0,0,0,.46,2.32,3.51,3.51,0,0,0,1.55,2,3.43,3.43,0,0,0,1.7.77c2.49.32,3.6-1.15,4.49-2.63h2.64a5.72,5.72,0,0,1-2,3.1,4.49,4.49,0,0,1-2.32,1.24,8.75,8.75,0,0,1-3.1.31,8.5,8.5,0,0,1-4-1.71,9.16,9.16,0,0,1-2-7.44,8.19,8.19,0,0,1,2.63-5.12c.12-.09.21-.06.31-.16a7.88,7.88,0,0,1,2.94-1.08c4.56-.52,8.1,2.94,7.75,8.37m-3.87-5.27c-.76-.39-1.23-.95-2-1.08a4.43,4.43,0,0,0-5.11,4.34c2.74-.11,5.89.2,8.37-.16a7.48,7.48,0,0,0-1.24-3.1" transform="translate(-4.67 -3.74)"/><path class="cls-1" d="M274.35,85.26a11.32,11.32,0,0,0-.78,2.17c-.34.34-.52-.27-.93-.31a2.46,2.46,0,0,0-2.17.16c-.17.09-.55.25-.62.31s0,.32-.16.47-.27.09-.31.15a7.9,7.9,0,0,0-.62,2.79c-.23,2.76.18,6.47,0,8.68h-2.48V84.8h2.17v1.86c0,.36.42-.06.31-.31.61-.28.6-1,1.24-1.4a4.33,4.33,0,0,1,4.34.31" transform="translate(-4.67 -3.74)"/><path class="cls-1" d="M341.92,99.67h-2.64V94.25c0-3.54.59-7-2.17-7.59a4.65,4.65,0,0,0-4,1.4c-1.34,2.8-.57,7.69-.78,11.62h-2.48V84.8h2.32v1.7c.46.1.59-.49.93-.78a6.17,6.17,0,0,1,4.49-1.24,16,16,0,0,1,2.48.77c.29.56.9.77,1.24,1.4a8.26,8.26,0,0,1,.62,3.1c.17,3-.13,7.07,0,9.92" transform="translate(-4.67 -3.74)"/><path class="cls-1" d="M354,105.72h-2.64c-2.46-.64-4.57-1.63-4.49-4.8a19.19,19.19,0,0,1,2.17.31c.57.2.37.66.62,1.24,1,1.38,3.91,1.6,5.43.77s1.78-2.81,1.86-5.11c-.59-.14-.87.55-1.24.78a5.86,5.86,0,0,1-5.89,0A5.05,5.05,0,0,1,348,97.35c-2.15-2.95-1.88-8.2.16-10.69a6.14,6.14,0,0,1,5.58-2.17,6.07,6.07,0,0,1,2.79,1.39s.46.95.62.31c0-.47,0-.79,0-.93.12-.54-.1-.2.46-.46.38-.18,1.3.13,1.86,0v9.14c0,3.84.24,7.88-1.39,9.77a7.22,7.22,0,0,1-4,2m-3.1-18.6a2.12,2.12,0,0,0-.78.93c0,.05-.27.1-.31.16s0,.23,0,.31-.28.09-.31.16-.07.48-.15.78c-.58,2.05-.39,5.65.77,7a6.32,6.32,0,0,0,1.55,1.08,5.14,5.14,0,0,0,2,.16c4.93-.66,4.81-12.28-1.55-11a2.36,2.36,0,0,0-1.24.46" transform="translate(-4.67 -3.74)"/><rect class="cls-2" x="177" y="81.06" width="2.48" height="14.88"/><path class="cls-1" d="M231.41,84.8h2.64c1.12,4,2.85,7.48,3.87,11.62.6-.21.45-.92.62-1.4.31-.87.7-1.88,1.08-2.94s.88-2.38,1.4-3.72c.35-.92.86-2.39,1.24-3.57h2.64c-1.86,5-3.79,9.85-5.58,14.88h-2.48c-1.67-5.1-3.79-9.75-5.43-14.88" transform="translate(-4.67 -3.74)"/><path class="cls-1" d="M281.32,105.72h-1.55c-.29-.32-1.19,0-.93-.93,0-.64-.27-1-.16-1.7,3.17.9,4-1.38,4.49-3.41-1.63-4.58-3.66-9.56-5.27-13.95-.08-.23-.36-.66-.16-.93h2.64c1.07,3.57,2.47,7,3.56,10.38.16.48.17,1.09.62,1.4.4-1.91,1.19-3.88,1.71-5.58,0-.06.28-.23.31-.31.37-1,.57-2.12.93-3.1.07-.2.23-.42.31-.62a9.41,9.41,0,0,1,.93-2.17h2.32c-1.6,4.46-3.47,9.64-5.12,14.1-.65,1.76-1.46,4.12-2.48,5.27a5.57,5.57,0,0,1-1.24,1.24c-.37.18-.61,0-.93.31" transform="translate(-4.67 -3.74)"/><rect class="cls-2" x="317.42" y="81.06" width="2.48" height="14.88"/><path class="cls-1" d="M76.58,3.74h3.87c21.76,1.17,37.86,9.35,49.44,20.92s20.72,26.59,22.47,47.74V83.09c-1.91,20.54-10.36,35.78-21.7,47.12S103.88,149.8,83.24,151.6H73.79a77.15,77.15,0,0,1-28.36-7.75A70.24,70.24,0,0,1,24.66,128.5c-11.42-12.54-20-28.85-20-52.23,0-22.43,10.3-39.44,21.54-50.68C38.31,13.49,54,5,76.58,3.74m70.21,78.58a58.8,58.8,0,0,0-7.29-33.17c-9.07-15.83-27.13-30-52.7-28.83a54.34,54.34,0,0,0-29,9.92c1.56,10.9,3.53,21.37,5.11,32.24,8.72-3.78,20.17-2.76,27.74.62,8.94,4,15.31,11.35,19.06,19.69,4.31,0,8.59,0,12.71-.16,4.29,9.76,8.54,19.57,13,29.14,5.64-7.91,10.42-17.37,11.31-29.45M51.47,69.61c1.25-1.15,4-2.63,4.18-3.57.15-.62-.39-2.3-.62-3.72-1.39-8.47-3.1-19-4.5-26.35A55.91,55.91,0,0,0,33.18,69.61C31,85,35.26,99.26,42.48,109.28c-6.24-15.49.42-31.83,9-39.68m3.87,6.82a26.73,26.73,0,0,0-7.9,20.3c.55,16,12.63,27.6,28.83,27.43,8.74-.09,14.82-3.81,19.53-8.52a26.86,26.86,0,0,0,8.06-20.15,27.91,27.91,0,0,0-8.37-19.68,28.85,28.85,0,0,0-20.3-7.91,27.8,27.8,0,0,0-19.84,8.53m56.26,13.79c2,13.82-3.5,25.34-11,32.08-6.79,6.1-16.23,10.66-27.9,9.45,9.13,4,23.78,3.24,33.17.46a53.36,53.36,0,0,0,24-14.26c-4.11-9.33-8.38-18.48-12.4-27.9-2.13-.11-3.78.25-5.89.16" transform="translate(-4.67 -3.74)"/></svg>